<?xml version="1.0" encoding="utf-8"?>
<!-- Generator: Adobe Illustrator 15.0.0, SVG Export Plug-In . SVG Version: 6.00 Build 0)  -->
<!DOCTYPE svg PUBLIC "-//W3C//DTD SVG 1.1//EN" "http://www.w3.org/Graphics/SVG/1.1/DTD/svg11.dtd">
<svg style="background-color: blackat " version="1.1" xmlns="http://www.w3.org/2000/svg" xmlns:xlink="http://www.w3.org/1999/xlink" x="0px" y="0px" width="300px"
	 height="300px" viewBox="0 0 500 500" enable-background="new 0 0 500 500" xml:space="preserve">
<path xmlns="http://www.w3.org/2000/svg" fill="#FFFFFF" d="M423.74,196.275c0,0-23.999-17.839-25.106-21.184c0,0-4.493-10.984-8.99-15.782   c-0.329-0.35-0.653-0.665-0.979-0.94c-4.801-4.088,7.385-25.27-8.492-39.021c0,0-35.814-5.573-49.846-21.182   c0,0-7.753-1.115-8.124-45.709c0,0-5.906,38.276,5.91,55.744c0,0-22.155-2.974-24.37-15.237c0,0-5.539-15.977,0.367-37.9   c-0.326,0.588-16.07,29.218,0.741,52.021c0,0,15.506,11.148,37.661,12.635c0,0,23.631,6.318,24.736,23.041   c0,0-5.17,2.603-5.17,7.433c0,0-7.383-9.29-13.29-10.776c0,0-7.384,7.804-2.956,21.183c0,0,3.694,6.317,7.756,8.547   c0,0-23.631,26.758-51.322,36.791c0,0-7.385,2.974-22.892,0.742c0,0-17.354-12.263-70.521-13.378c0,0-47.998-11.521-71.999-5.946   c0,0-20.308,4.46-36.554,21.556c0,0-23.63,4.087-28.428,18.581c0,0-8.123,11.147,21.043,34.932c0,0,33.971,28.987,38.399,38.277   l-5.168,16.723c0,0-3.693,5.947,9.601,12.264l5.538,4.088l0.369,7.805c0,0,3.323,6.689,9.969,10.777l37.66,40.135   c0,0,0.74,6.318,8.862,10.406l1.477-2.229l8.493,10.405l16.245,6.689l8.122,2.602l-1.107-6.689l-1.615-2.928   c0,0-7.615-6.363-12.046-7.478l-46.153-49.427l13.661,7.433c0,0,4.802,6.69,6.277,7.061l1.845-2.972c0,0,9.97,8.174,12.186,8.547   c0,0,2.954,2.973,4.061,8.175l14.771,6.318l-3.323-9.29l1.107-3.346c0,0-8.862-10.034-14.029-13.006l-11.675-8.793l37.15-0.871   c0,0,11.076-1.113,12.924-3.715c0,0,6.274,4.088,12.182-1.487l44.309-26.385c0,0,20.307-8.214,8.861-18.413l-24.738-24.696   c0,0,36.553-15.608,58.704-46.08c0,0,15.509-19.696,23.631-21.741c0,0,32.863-0.186,46.154,7.618l6.645-3.345   c0,0,4.063-1.485,3.324-2.601c0,0,5.908-1.486,3.692-5.575C429.279,206.68,435.558,199.619,423.74,196.275z M225.1,341.951   l-42.283,1.764l-24.547-18.486c0,0-5.906-17.502-2.216-22.129l8.122-26.554c0,0,33.601,15.608,59.815,16.352l9.229,43.109   L225.1,341.951z M291.929,304.418c6.275,3.344,6.645,6.317,6.645,6.317c-4.798,8.919-47.684,26.757-47.684,26.757   c-5.225-19.696,1.532-41.993,1.532-41.993c9.969-1.115,17.724-4.459,17.724-4.459C274.942,295.871,291.929,304.418,291.929,304.418   z"/>
</svg>
