<?xml version="1.0" encoding="utf-8"?>
<!-- Generator: Adobe Illustrator 15.0.0, SVG Export Plug-In . SVG Version: 6.00 Build 0)  -->
<!DOCTYPE svg PUBLIC "-//W3C//DTD SVG 1.1//EN" "http://www.w3.org/Graphics/SVG/1.1/DTD/svg11.dtd">
<svg version="1.1" id="Ebene_1" xmlns="http://www.w3.org/2000/svg" xmlns:xlink="http://www.w3.org/1999/xlink" x="0px" y="0px"
	 width="25px" height="25px" viewBox="0 0 25 25" enable-background="new 0 0 25 25" xml:space="preserve">
<rect fill="#FFFFFF" width="25" height="25"/>
<g>
	<path fill="#1B8DBB" d="M14.553,20.828c0,0.695,0.531,1.254,1.191,1.254c0.656,0,1.195-0.559,1.195-1.254v-2.602l4.813,4.816
		c0.465,0.469,1.219,0.469,1.688,0c0.465-0.465,0.465-1.219,0-1.684l-4.793-4.793h2.59c0.703,0,1.27-0.535,1.27-1.191
		c0-0.66-0.566-1.191-1.27-1.191h-5.41c-0.707,0-1.273,0.531-1.273,1.191c0,0.02,0.004,0.031,0.008,0.051
		c-0.004,0.02-0.008,0.043-0.008,0.066V20.828z M23.788,16.75"/>
	<g>
		<defs>
			<rect id="SVGID_1_" x="1.101" y="1.557" width="22.8" height="21.884"/>
		</defs>
		<clipPath id="SVGID_2_">
			<use xlink:href="#SVGID_1_"  overflow="visible"/>
		</clipPath>
		<path clip-path="url(#SVGID_2_)" fill="#1B8DBB" d="M3.137,23.047l4.812-4.816v2.602c0,0.695,0.535,1.254,1.192,1.254
			c0.66,0,1.195-0.559,1.195-1.254v-5.336c0-0.023-0.008-0.047-0.008-0.07c0-0.016,0.004-0.031,0.008-0.047
			c-0.004-0.66-0.57-1.195-1.273-1.195H3.652c-0.703,0-1.273,0.535-1.273,1.195c0,0.656,0.57,1.191,1.273,1.191h2.586l-4.789,4.789
			c-0.465,0.465-0.465,1.223,0,1.688C1.915,23.516,2.668,23.516,3.137,23.047L3.137,23.047z M3.137,23.047"/>
		<path clip-path="url(#SVGID_2_)" fill="#1B8DBB" d="M21.752,1.794l-4.813,4.812V4.005c0-0.692-0.539-1.25-1.195-1.254
			c-0.66,0-1.191,0.562-1.191,1.254v5.34c0,0.019,0.004,0.046,0.008,0.066c-0.004,0.016-0.008,0.031-0.008,0.051
			c0,0.66,0.57,1.191,1.273,1.191h5.41c0.703,0,1.27-0.531,1.27-1.191c0-0.656-0.566-1.196-1.27-1.196h-2.59l4.793-4.789
			c0.465-0.464,0.465-1.218,0-1.683C22.971,1.325,22.217,1.325,21.752,1.794L21.752,1.794z M21.752,1.794"/>
		<path clip-path="url(#SVGID_2_)" fill="#1B8DBB" d="M6.238,8.266H3.652c-0.703,0-1.273,0.54-1.273,1.196
			c0,0.66,0.57,1.191,1.273,1.191h5.411c0.703,0,1.269-0.531,1.273-1.191c-0.004-0.02-0.008-0.035-0.008-0.051
			c0-0.02,0.008-0.043,0.008-0.066v-5.34c0-0.692-0.535-1.254-1.195-1.254C8.484,2.755,7.949,3.313,7.949,4.005v2.601L3.137,1.794
			c-0.469-0.469-1.223-0.469-1.688,0c-0.465,0.465-0.465,1.219,0,1.683L6.238,8.266z M6.238,8.266"/>
	</g>
</g>
</svg>
