<?xml version="1.0" encoding="utf-8"?>
<!-- Generator: Adobe Illustrator 19.2.0, SVG Export Plug-In . SVG Version: 6.00 Build 0)  -->
<svg version="1.1" id="Ebene_1" xmlns="http://www.w3.org/2000/svg" xmlns:xlink="http://www.w3.org/1999/xlink" x="0px" y="0px"
	 viewBox="0 0 300 300" style="enable-background:new 0 0 300 300;" xml:space="preserve">
<style type="text/css">
	.st0{fill:#1B8DBB;}
</style>
<g>
	<path class="st0" d="M280.8,271.4c0,5.9-4.8,10.7-10.7,10.7h-35.7c-5.9,0-10.7-4.8-10.7-10.7v-35.7c0-5.9,4.8-10.7,10.7-10.7h10.7
		v-21.4h-57v21.4h10.7c5.9,0,10.7,4.8,10.7,10.7v35.7c0,5.9-4.8,10.7-10.7,10.7h-35.7c-5.9,0-10.7-4.8-10.7-10.7v-35.7
		c0-5.9,4.8-10.7,10.7-10.7h10.7v-21.4h-57v21.4h10.7c5.9,0,10.7,4.8,10.7,10.7v35.7c0,5.9-4.8,10.7-10.7,10.7H91.8
		c-5.9,0-10.7-4.8-10.7-10.7v-35.7c0-5.9,4.8-10.7,10.7-10.7h10.7v-21.4c0-7.8,6.5-14.3,14.3-14.3h57V168h-10.7
		c-5.9,0-10.7-4.8-10.7-10.7v-35.7c0-5.9,4.8-10.7,10.7-10.7h35.7c5.9,0,10.7,4.8,10.7,10.7v35.7c0,5.9-4.8,10.7-10.7,10.7h-10.7
		v21.4h57c7.8,0,14.3,6.5,14.3,14.3v21.4h10.7c5.9,0,10.7,4.8,10.7,10.7V271.4z"/>
</g>
<g>
	<path class="st0" d="M27,57.5c-2.3-1.2-4.2-3.4-5-6c-0.8-2.6-0.5-5.5,0.7-7.9l5.8-10.7c1.2-2.4,3.4-4.2,6-5
		c2.6-0.8,5.5-0.5,7.9,0.8l68.4,36.2c-8.8,7.1-14.4,17.6-15.3,28.9L27,57.5z M51.4,47.8c-0.8-2.7-3.7-4.2-6.4-3.4
		c-2.7,0.8-4.2,3.7-3.4,6.4c0.8,2.7,3.7,4.2,6.4,3.4S52.2,50.5,51.4,47.8z M135.1,132.9c-15.2-0.6-28.6-10.9-33.1-25.4
		c-5.8-19,4.9-39.1,23.8-45s39.1,4.9,45,23.8c1.7,5.6,2.3,13.4,0.6,19.1c-0.3,0.9-0.9,1.6-1.8,1.9c-0.8,0.3-1.9,0-2.5-0.6
		l-19.9-18.5L130,93.6l-3.7,17.3c2.2,2.1,18.9,16.5,19.4,18c0.5,1.5-0.4,2.8-1.9,3.3C141.3,133,137.8,133,135.1,132.9z"/>
</g>
</svg>
